<?xml version="1.0" encoding="UTF-8"?><svg id="Layer_1" xmlns="http://www.w3.org/2000/svg" height="18" width="18" viewBox="0 0 16 16"><defs><style>.cls-1{fill:#1e3050;stroke-width:0px;}</style></defs><path class="cls-1" d="m14.06,7.63c-.21.18-.23.49-.05.7.01.02.03.03.04.04.3.26.59.54.88.82.43.42.45.97.25,1.52-.41,1.08-.93,1.96-1.55,2.62-.41.43-.95.48-1.5.31-.3-.1-.63-.2-.99-.29-.31-.08-.56.15-.62.45-.08.4-.16.77-.26,1.12-.14.48-.49.82-1,.92-1.05.21-2.09.22-3.13.01-.37-.07-.69-.23-.88-.57-.03-.06-.07-.12-.1-.18-.03-.05-.06-.11-.07-.17-.07-.29-.14-.55-.2-.87-.04-.22-.08-.37-.12-.46-.1-.21-.39-.32-.62-.24-.38.12-.77.23-1.16.34-.56.15-1.02-.06-1.38-.49-.57-.68-1-1.4-1.3-2.14-.25-.63-.51-1.25.06-1.82.3-.3.6-.59.92-.88.2-.19.22-.5.03-.7,0,0-.02-.02-.02-.02-.24-.23-.51-.48-.8-.75-.44-.41-.57-.88-.38-1.41.39-1.11.94-2.06,1.65-2.83.38-.42.92-.45,1.46-.28.35.11.68.21,1,.29.28.07.52-.13.59-.39.08-.33.16-.67.24-1.02.13-.58.49-.97,1.11-1.09,1.03-.2,2.07-.2,3.1,0,.71.14,1,.65,1.13,1.31.06.3.13.58.21.86.07.24.33.38.57.32.32-.09.64-.18.95-.28.67-.22,1.23-.11,1.7.47.72.88,1.21,1.81,1.48,2.78.1.37.05.69-.17.97-.28.36-.69.73-1.04,1.04Zm-.48-2.31c-.04-.06-.06-.12-.08-.19-.02-.07-.05-.13-.08-.2-.22-.38-.48-.75-.76-1.11-.03-.04-.07-.05-.11-.03-.82.27-1.62.6-2.45.12-.48-.28-.78-.64-.91-1.09-.11-.38-.21-.77-.31-1.17,0-.04-.03-.06-.07-.06-.78-.11-1.55-.11-2.3,0-.02,0-.04.02-.04.04-.07.25-.12.51-.17.79-.05.29-.14.53-.25.73-.44.76-1.41,1.16-2.26.94-.35-.09-.68-.19-1-.3-.04-.01-.07,0-.09.03-.51.6-.89,1.26-1.14,1.99-.01.03,0,.06.02.09.25.23.5.46.75.71.8.79.77,2.08-.04,2.86-.23.22-.46.43-.71.65-.03.03-.04.06-.02.09.26.72.64,1.38,1.14,1.98.02.03.05.03.08.03.34-.1.67-.2,1-.29.34-.1.71-.12,1.04,0,.81.27,1.31.82,1.47,1.63.05.26.11.53.18.81,0,.04.03.06.07.06.77.11,1.54.11,2.28,0,.04,0,.06-.03.07-.07.09-.39.18-.76.28-1.11.22-.78.98-1.35,1.81-1.39.53-.03,1.1.22,1.62.36.02,0,.04,0,.05-.02.52-.62.9-1.29,1.14-2.01.01-.03,0-.06-.02-.09-.26-.24-.52-.49-.78-.75-.07-.07-.13-.14-.18-.22-.05-.08-.1-.16-.15-.24-.08-.13-.13-.25-.15-.37-.08-.38-.08-.75.01-1.12.15-.64.78-1.11,1.25-1.53.03-.02.03-.05.03-.09-.04-.16-.11-.33-.2-.49Z"/><path class="cls-1" d="m10.59,7.98c0,1.62-1.31,2.93-2.93,2.93s-2.93-1.31-2.93-2.93,1.31-2.93,2.93-2.93,2.93,1.31,2.93,2.93Zm-1.45,0c0-.82-.66-1.48-1.48-1.48h0c-.82,0-1.48.66-1.48,1.48h0c0,.82.66,1.48,1.48,1.48h0c.82,0,1.48-.66,1.48-1.48h0Z"/></svg>